<?xml version="1.0" standalone="no"?>
<!DOCTYPE svg PUBLIC "-//W3C//DTD SVG 20010904//EN"
 "http://www.w3.org/TR/2001/REC-SVG-20010904/DTD/svg10.dtd">
<svg version="1.0" xmlns="http://www.w3.org/2000/svg"
 width="250.000000pt" height="250.000000pt" viewBox="0 0 250.000000 250.000000"
 preserveAspectRatio="xMidYMid meet">
<metadata>
Created by potrace 1.11, written by Peter Selinger 2001-2013
</metadata>
<g transform="translate(0.000000,250.000000) scale(0.100000,-0.100000)"
fill="#000000" stroke="none">
<path d="M1238 2475 c-2 -2 -25 -6 -52 -10 -47 -5 -128 -39 -161 -67 -9 -7
-101 -96 -206 -198 l-190 -185 75 -78 c42 -43 76 -75 76 -72 0 4 12 -8 26 -25
37 -43 422 -424 433 -428 5 -2 25 14 45 34 36 37 67 51 220 100 l78 26 117
-32 c125 -34 139 -43 146 -82 4 -21 -5 -36 -47 -78 -50 -48 -55 -51 -93 -47
-44 6 -94 15 -112 22 -7 2 -42 -4 -78 -14 -46 -13 -76 -28 -98 -51 l-31 -31
307 -306 306 -307 31 31 c22 22 38 52 50 97 17 58 17 71 5 123 -23 94 -20 105
33 157 57 56 86 66 113 39 19 -18 25 -35 36 -96 3 -15 10 -27 15 -27 5 0 7 -4
4 -9 -4 -5 -3 -17 0 -26 6 -13 18 -6 65 41 33 32 59 63 59 68 0 5 6 17 13 25
26 30 50 114 52 180 2 75 -25 166 -69 229 -14 21 -227 238 -473 482 -475 472
-496 490 -603 505 -25 4 -55 8 -67 10 -12 2 -23 2 -25 0z"/>
<path d="M455 1833 c-22 -24 -41 -44 -42 -46 -2 -3 -11 -44 -19 -90 -3 -16 -1
-50 5 -75 24 -105 25 -101 -33 -159 -29 -29 -62 -53 -73 -53 -29 0 -61 30 -68
63 -13 70 -17 83 -26 91 -5 6 -23 -5 -45 -30 -124 -134 -150 -293 -74 -449 25
-52 92 -123 485 -514 250 -250 455 -452 455 -448 0 3 11 -4 24 -16 81 -75 290
-84 403 -17 36 22 423 398 423 411 0 5 -490 499 -588 592 l-30 29 -45 -45
c-40 -41 -59 -50 -172 -88 -125 -41 -128 -42 -183 -28 -32 7 -59 13 -62 14 -3
1 -32 9 -65 19 -98 29 -110 67 -42 138 23 24 50 47 61 51 10 4 51 1 92 -8 66
-13 79 -13 135 1 46 12 71 26 100 53 l38 38 -305 304 c-168 167 -306 304 -307
305 -1 0 -20 -19 -42 -43z"/>
</g>
</svg>
